HIERARCHY
ROOT Hips
{
	OFFSET 0.000000 0.000000 0.000000
	CHANNELS 6 Xposition Yposition Zposition Xrotation Yrotation Zrotation
	JOINT LeftUpLeg_virtual
	{
		OFFSET 0.000000 0.000000 0.000000
		CHANNELS 3 Xrotation Yrotation Zrotation
		JOINT LeftUpLeg
		{
			OFFSET 13.026900 -6.336304 -1.092800
			CHANNELS 3 Xrotation Yrotation Zrotation
			JOINT LeftLeg
			{
				OFFSET 0.524474 -46.096886 9.782700
				CHANNELS 3 Xrotation Yrotation Zrotation
				JOINT LeftFoot
				{
					OFFSET -0.524474 -53.427422 -12.948200
					CHANNELS 3 Xrotation Yrotation Zrotation
					JOINT LeftToeBase
					{
						OFFSET 0.192200 -14.009700 16.364100
						CHANNELS 3 Xrotation Yrotation Zrotation
						JOINT LeftToe_End
						{
							OFFSET -1.784700 -0.561700 9.474800
							CHANNELS 3 Xrotation Yrotation Zrotation
							End Site
							{
								OFFSET 0 0 0
							}
						}
					}
				}
			}
		}
	}
	JOINT RightUpLeg_virtual
	{
		OFFSET 0.000000 0.000000 0.000000
		CHANNELS 3 Xrotation Yrotation Zrotation
		JOINT RightUpLeg
		{
			OFFSET -12.883000 -6.336304 -1.092800
			CHANNELS 3 Xrotation Yrotation Zrotation
			JOINT RightLeg
			{
				OFFSET -0.524587 -46.096825 9.782800
				CHANNELS 3 Xrotation Yrotation Zrotation
				JOINT RightFoot
				{
					OFFSET 0.524587 -53.427383 -12.948300
					CHANNELS 3 Xrotation Yrotation Zrotation
					JOINT RightToeBase
					{
						OFFSET -0.192200 -14.009700 16.364100
						CHANNELS 3 Xrotation Yrotation Zrotation
						JOINT RightToe_End
						{
							OFFSET 1.784700 -0.561700 9.474800
							CHANNELS 3 Xrotation Yrotation Zrotation
							End Site
							{
								OFFSET 0 0 0
							}
						}
					}
				}
			}
		}
	}
	JOINT Spine_virtual
	{
		OFFSET 0.000000 0.000000 0.000000
		CHANNELS 3 Xrotation Yrotation Zrotation
		JOINT Spine
		{
			OFFSET 0.072000 7.257294 -0.789700
			CHANNELS 3 Xrotation Yrotation Zrotation
			JOINT Spine1
			{
				OFFSET 0.000000 12.508769 -0.658067
				CHANNELS 3 Xrotation Yrotation Zrotation
				JOINT Spine1_split
				{
					OFFSET 0.000000 12.508769 -0.658067
					CHANNELS 3 Xrotation Yrotation Zrotation
					JOINT Spine2
					{
						OFFSET 0.000000 12.508769 -0.658067
						CHANNELS 3 Xrotation Yrotation Zrotation
						JOINT Neck_virtual
						{
							OFFSET 0.000000 0.000000 0.000000
							CHANNELS 3 Xrotation Yrotation Zrotation
							JOINT Neck
							{
								OFFSET 0.000000 14.033295 7.520400
								CHANNELS 3 Xrotation Yrotation Zrotation
								JOINT Head
								{
									OFFSET 0.000000 8.198502 5.703100
									CHANNELS 3 Xrotation Yrotation Zrotation
									JOINT HeadTop_End
									{
										OFFSET 0.000000 17.760803 13.332701
										CHANNELS 3 Xrotation Yrotation Zrotation
										End Site
										{
											OFFSET 0 0 0
										}
									}
								}
							}
						}
						JOINT LeftShoulder_virtual
						{
							OFFSET 0.000000 0.000000 0.000000
							CHANNELS 3 Xrotation Yrotation Zrotation
							JOINT LeftShoulder
							{
								OFFSET 6.292450 5.785301 -0.669000
								CHANNELS 3 Xrotation Yrotation Zrotation
								JOINT LeftShoulder_split
								{
									OFFSET 6.292450 5.785301 -0.669000
									CHANNELS 3 Xrotation Yrotation Zrotation
									JOINT LeftArm
									{
										OFFSET 13.907140 -6.093903 1.965100
										CHANNELS 3 Xrotation Yrotation Zrotation
										JOINT LeftForeArm
										{
											OFFSET 34.140198 0.000000 0.000000
											CHANNELS 3 Xrotation Yrotation Zrotation
											JOINT LeftHand
											{
												OFFSET 40.960209 0.000000 0.000000
												CHANNELS 3 Xrotation Yrotation Zrotation
												End Site
												{
													OFFSET 0 0 0
												}
											}
										}
									}
								}
							}
						}
						JOINT RightShoulder_virtual
						{
							OFFSET 0.000000 0.000000 0.000000
							CHANNELS 3 Xrotation Yrotation Zrotation
							JOINT RightShoulder
							{
								OFFSET -6.292450 5.785301 -0.669000
								CHANNELS 3 Xrotation Yrotation Zrotation
								JOINT RightShoulder_split
								{
									OFFSET -6.292450 5.785301 -0.669000
									CHANNELS 3 Xrotation Yrotation Zrotation
									JOINT RightArm
									{
										OFFSET -13.907140 -6.093903 1.965100
										CHANNELS 3 Xrotation Yrotation Zrotation
										JOINT RightForeArm
										{
											OFFSET -34.140198 0.000000 0.000000
											CHANNELS 3 Xrotation Yrotation Zrotation
											JOINT RightHand
											{
												OFFSET -40.960209 0.000000 0.000000
												CHANNELS 3 Xrotation Yrotation Zrotation
												End Site
												{
													OFFSET 0 0 0
												}
											}
										}
									}
								}
							}
						}
					}
				}
			}
		}
	}
}
MOTION
Frames: 4
Frame Time: 0.03333333
4.386478 20.081589 -12.126638 0.000000 0.000000 0.000000 83.605545 5.741260 -4.961325 -8.769820 9.054138 17.071725 27.593358 19.337056 0.792464 30.268940 27.843145 -14.286895 0.849633 2.738987 11.793552 0.000000 0.000000 0.000000 81.851853 -1.114123 -3.401278 -8.236536 -5.964969 -14.974100 -2.068824 -7.539566 0.229045 35.308438 -17.390573 18.435862 17.916163 -2.725350 -8.620383 0.000000 0.000000 0.000000 88.119836 3.236109 -4.848778 2.929341 0.199876 -1.895799 1.570148 0.304874 0.047596 0.379115 -2.372593 0.963355 0.000000 0.000000 0.000000 0.440545 0.173303 -0.438289 -4.764435 -13.152689 5.873927 -17.985818 -56.812629 -18.510173 0.000000 0.000000 0.000000 1.060844 0.251437 -0.406290 3.200644 -18.260716 -3.064121 -1.021815 -0.803917 -1.814602 25.321407 -22.632894 -55.035352 0.552214 -26.901296 -1.036629 0.000000 0.000000 0.000000 1.068496 0.423176 -0.253862 -0.236098 11.869471 11.818654 6.221964 6.607948 -1.542960 8.718234 -8.436196 55.429239 0.429863 27.673466 2.334228 0.000000 0.000000 0.000000 
4.383888 20.081085 -12.139856 0.000000 0.000000 0.000000 83.602840 5.743737 -4.963389 -8.787388 9.047881 17.069169 27.603769 19.337326 0.784662 30.279762 27.853710 -14.280916 0.836912 2.739404 11.794325 0.000000 0.000000 0.000000 81.850637 -1.107286 -3.410988 -8.238890 -5.949990 -14.976870 -2.058310 -7.533454 0.227045 35.306173 -17.381754 18.447212 17.913786 -2.723914 -8.623893 0.000000 0.000000 0.000000 88.114624 3.235088 -4.843172 2.928964 0.202066 -1.890269 1.566740 0.303922 0.048688 0.378613 -2.361908 0.964112 0.000000 0.000000 0.000000 0.439690 0.173307 -0.439822 -4.770699 -13.153892 5.873678 -17.985299 -56.800229 -18.512505 0.000000 0.000000 0.000000 1.065576 0.249461 -0.403395 3.208358 -18.279181 -3.037799 -1.028561 -0.799681 -1.821042 25.312457 -22.619575 -55.038682 0.547288 -26.880833 -1.028374 0.000000 0.000000 0.000000 1.069030 0.421561 -0.253273 -0.236573 11.863238 11.818512 6.238128 6.635267 -1.540090 8.713798 -8.437490 55.410074 0.443170 27.679412 2.330308 0.000000 0.000000 0.000000 
4.381674 20.082413 -12.161867 0.000000 0.000000 0.000000 83.598811 5.753128 -4.977498 -8.824618 9.045598 17.073060 27.626780 19.339775 0.774741 30.302769 27.861387 -14.281244 0.817886 2.738947 11.795448 0.000000 0.000000 0.000000 81.845460 -1.096405 -3.428062 -8.227891 -5.923750 -14.974584 -2.054354 -7.526920 0.220996 35.304558 -17.370863 18.463275 17.938145 -2.721509 -8.612561 0.000000 0.000000 0.000000 88.105909 3.233799 -4.835567 2.928473 0.207974 -1.884214 1.565656 0.304186 0.050780 0.378568 -2.346837 0.962823 0.000000 0.000000 0.000000 0.436488 0.173942 -0.439823 -4.776294 -13.153069 5.867725 -17.965551 -56.791595 -18.508378 0.000000 0.000000 0.000000 1.071644 0.248577 -0.399726 3.218753 -18.323364 -3.009833 -1.030532 -0.807738 -1.827874 25.306546 -22.597584 -55.034345 0.526191 -26.835463 -1.037387 0.000000 0.000000 0.000000 1.072333 0.421271 -0.252017 -0.237589 11.851789 11.821956 6.272157 6.670374 -1.542120 8.698847 -8.475800 55.390116 0.459524 27.684031 2.327649 0.000000 0.000000 0.000000 
4.377597 20.084320 -12.187082 0.000000 0.000000 0.000000 83.595184 5.765781 -5.003105 -8.885700 9.048280 17.086172 27.663596 19.342992 0.760723 30.334837 27.863924 -14.289950 0.794928 2.737682 11.797355 0.000000 0.000000 0.000000 81.839347 -1.081279 -3.454583 -8.208404 -5.884446 -14.967219 -2.051254 -7.518060 0.212005 35.304213 -17.358234 18.485364 17.985365 -2.718012 -8.589599 0.000000 0.000000 0.000000 88.093301 3.228403 -4.828902 2.929727 0.216624 -1.877212 1.566558 0.305448 0.053487 0.379276 -2.341316 0.964013 0.000000 0.000000 0.000000 0.431134 0.174958 -0.438915 -4.780155 -13.151879 5.858442 -17.925365 -56.786377 -18.495268 0.000000 0.000000 0.000000 1.077895 0.248528 -0.395358 3.231542 -18.387979 -2.981342 -1.027638 -0.823752 -1.839813 25.302627 -22.564286 -55.024776 0.494738 -26.793531 -1.059832 0.000000 0.000000 0.000000 1.076822 0.422333 -0.250589 -0.240090 11.835558 11.829010 6.315592 6.711687 -1.543479 8.669318 -8.550519 55.367825 0.475199 27.676628 2.324536 0.000000 0.000000 0.000000 
